<?xml version="1.0" encoding="utf-8"?>
<!-- Generator: Adobe Illustrator 21.0.0, SVG Export Plug-In . SVG Version: 6.00 Build 0)  -->
<svg version="1.1" id="Layer_1" xmlns="http://www.w3.org/2000/svg" xmlns:xlink="http://www.w3.org/1999/xlink" x="0px" y="0px"
	 viewBox="0 0 60 33.5" style="enable-background:new 0 0 60 33.5;" xml:space="preserve">
<style type="text/css">
path{fill:#fff;}
</style>
<path class="st0" d="M45.5,33.5l-14.6-18l-6.1,6.6l8.8,11.4H45.5z"/>
<path d="M31.3,0H18.7L0,20v13.5L31.3,0z"/>
<path d="M45.4,0H32.8L14.1,20v13.5L45.4,0z"/>
<!-- <path class="st0" d="M46.5,0v11.2L56.9,0H46.5z"/> -->
<path d="M46.5,11.2v22.3h10.4V0L46.5,11.2z"/>
<!-- <path d="M57.7,0v0.3H58v1h0.3v-1h0.3V0L57.7,0z"/> -->
<!-- <path d="M58.6,1.3V0H59l0.3,1l0.3-1H60v1.3h-0.3v-1l-0.3,1h-0.2l-0.3-1v1L58.6,1.3L58.6,1.3z"/> -->
</svg>
